<?xml version="1.0" encoding="utf-8"?>
<!-- Generator: Adobe Illustrator 25.0.1, SVG Export Plug-In . SVG Version: 6.00 Build 0)  -->
<svg version="1.1" id="Layer_1" xmlns="http://www.w3.org/2000/svg" xmlns:xlink="http://www.w3.org/1999/xlink" x="0px" y="0px"
	 viewBox="0 0 595.28 876.13" style="enable-background:new 0 0 595.28 876.13;" xml:space="preserve">
<style type="text/css">
	.st0{fill:#4C2C2C;}
	.st1{fill:#F5EB1A;}
	.st2{fill:#2C304B;}
</style>
<path class="st0" d="M300.62,124.47c4.81,0,9.63,0,14.44,0c9.81,4.31,20.33,2.04,30.43,2.72c27.7,1.87,53.11,11.06,77.28,23.34
	c59.99,30.49,102.18,77.55,126.71,140.31c8.58,21.94,13.34,44.59,13.15,68.22c-0.04,4.38-0.96,8.99,2.02,12.94c0,0.69,0,1.38,0,2.06
	c-1.65,4.81-1.65,9.63,0,14.44c0,0.69,0,1.38,0,2.06c-4.49,8.32-2.16,17.53-2.7,26.19c-1.75,28.09-11.03,53.8-23.68,78.21
	c-33.46,64.58-84.98,108.43-154.36,130.81c-6.8,2.19-9.01,6.14-8.98,12.87c0.12,25.4,0.11,50.81,0.02,76.21
	c-0.02,5.13,0.37,10.38-3.11,14.82c-0.89,0.92-1.91,1.59-3.08,2.08c-2.86,1.56-5.99,1.43-9.06,1.45c-34.64,0.17-69.28,0.18-103.92,0
	c-2.73-0.01-5.51,0.06-8.05-1.18c-1.15-0.38-2.23-0.96-3.21-1.68c-4.28-4.42-3.76-10.08-3.78-15.54c-0.09-24.75-0.3-49.5,0.1-74.25
	c0.14-8.84-2.63-13.08-11.49-16.27c-88.85-32.03-146.1-93.53-170.43-185.12c-3.19-12.01-3.24-24.42-3.78-36.75
	c-0.18-4.01,1.12-8.33-2.03-11.85c0-6.88,0-13.75,0-20.63c4.53-7.96,2.14-16.85,2.61-25.16c1.54-27.41,10.37-52.66,22.5-76.51
	c36.4-71.59,93.71-117.88,171.75-137.91c13.36-3.43,27.09-3.81,40.82-3.86C294.18,126.51,297.68,126.81,300.62,124.47z"/>
<path class="st1" d="M371.48,733.35c0.1,36.35,0.12,72.69,0.37,109.04c0.04,6.15-2.25,8.54-8.45,8.51
	c-36.35-0.16-72.69-0.16-109.04,0c-6.2,0.03-8.49-2.37-8.45-8.51c0.25-36.35,0.27-72.69,0.37-109.04
	C288,733.35,329.74,733.35,371.48,733.35z"/>
<path class="st2" d="M86.65,414.19c1.47-53.91,8.11-98.55,28.29-139.87c30.31-62.05,80.77-98.86,148.03-112.31
	c66.14-13.22,127.49-0.47,181.7,39.76c31.28,23.21,53.18,54.49,66.58,91.5c15.23,42.06,21.96,85.58,19.27,129.94
	c-2,33-15.65,62.46-36.71,88.22c-14.46,17.69-31.09,32.75-53.72,38.4c-31.67,7.91-60.3-0.52-86.41-19.09
	c-32.23-22.92-57.54-22.98-88.96-0.11c-37.73,27.47-85.76,29.74-116.8,4.13C107.5,501.41,87.47,458.24,86.65,414.19z"/>
</svg>
